HIERARCHY
ROOT ui
{
	 OFFSET 0 0 0
	 CHANNELS 3 XPosition YPosition Z Position
	 EndSite
	 {
	 OFFSET 0 -1 0
	 }
}
ROOT li
{
	 OFFSET 0 0 0
	 CHANNELS 3 XPosition YPosition Z Position
	 EndSite
	 {
	 OFFSET 0 -1 0
	 }
}
ROOT ul
{
	 OFFSET 0 0 0
	 CHANNELS 3 XPosition YPosition Z Position
	 EndSite
	 {
	 OFFSET 0 -1 0
	 }
}
ROOT ll
{
	 OFFSET 0 0 0
	 CHANNELS 3 XPosition YPosition Z Position
	 EndSite
	 {
	 OFFSET 0 -1 0
	 }
}
ROOT tt
{
	 OFFSET 0 0 0
	 CHANNELS 3 XPosition YPosition Z Position
	 EndSite
	 {
	 OFFSET 0 -1 0
	 }
}
ROOT tb
{
	 OFFSET 0 0 0
	 CHANNELS 3 XPosition YPosition Z Position
	 EndSite
	 {
	 OFFSET 0 -1 0
	 }
}
ROOT td
{
	 OFFSET 0 0 0
	 CHANNELS 3 XPosition YPosition Z Position
	 EndSite
	 {
	 OFFSET 0 -1 0
	 }
}
ROOT v
{
	 OFFSET 0 0 0
	 CHANNELS 3 XPosition YPosition Z Position
	 EndSite
	 {
	 OFFSET 0 -1 0
	 }
}
ROOT bn
{
	 OFFSET 0 0 0
	 CHANNELS 3 XPosition YPosition Z Position
	 EndSite
	 {
	 OFFSET 0 -1 0
	 }
}
MOTION
Frames: 10
Frame Time: 0.002
-0.023790632247924805	0.0012343389987945557	0		0.5258809814453125	-2.43727880859375	0		-1.02940478515625	0.18760260009765625	0		-0.6402653198242187	-2.741822265625	0		2.59104833984375	-0.3295128173828125	0		3.770414306640625	-0.1591565856933594	0		5.0398916015625	0.019003898620605468	0		6.03996044921875	0.5447720336914063	0		-0.19739254760742186	5.90706005859375	0		
0.011707653999328613	-0.007764729022979736	0		0.5295029296875	-2.432865234375	0		-1.0147410888671875	0.1909031982421875	0		-0.7027637329101563	-2.74550537109375	0		2.57979638671875	-0.3189442749023437	0		3.774978271484375	-0.16282475280761718	0		5.0275009765625	0.01853445816040039	0		6.04880517578125	0.56100048828125	0		-0.16160871887207032	5.9100634765625	0		
0.009505009651184082	0.008761715888977051	0		0.5242124633789063	-2.419308837890625	0		-0.9361201171875	0.19337237548828126	0		-0.63535986328125	-2.754894775390625	0		2.583493896484375	-0.309548095703125	0		3.75969384765625	-0.1521993408203125	0		5.0221923828125	0.027002006530761718	0		6.04840087890625	0.5613818969726563	0		-0.1979439239501953	5.9080478515625	0		
0.0019649909734725953	0.0023765559196472167	0		0.5196686401367188	-2.422743408203125	0		-1.0215298461914062	0.19704362487792967	0		-0.6809461059570312	-2.760761474609375	0		2.570001953125	-0.31189981079101564	0		3.73307275390625	-0.16439788818359374	0		5.01254638671875	0.012554251670837402	0		6.04385693359375	0.553848388671875	0		-0.04607211685180664	5.9235439453125	0		
-0.0255074520111084	0.0032735819816589354	0		0.5451126098632812	-2.42556201171875	0		-0.9410889282226562	0.19051548767089843	0		-0.6176577758789062	-2.7750673828125	0		2.549737548828125	-0.29513873291015624	0		3.737621337890625	-0.16198794555664062	0		4.99799267578125	0.007198154926300049	0		6.0344052734375	0.555408447265625	0		-0.21479788208007813	5.89932666015625	0		
-0.006100128173828125	-0.0034455769062042237	0		0.518622802734375	-2.421675537109375	0		-1.0165634765625	0.19307862854003907	0		-0.6842960815429687	-2.78162841796875	0		2.536197021484375	-0.2974541625976562	0		3.73712158203125	-0.16149452209472656	0		4.99646875	0.005686986923217774	0		6.03490234375	0.5548555297851563	0		-0.2142238311767578	5.89886376953125	0		
0.009359114646911621	-0.005106736183166504	0		0.5289967651367188	-2.4272763671875	0		-1.013020263671875	0.1975909423828125	0		-0.6868722534179688	-2.783039794921875	0		2.511789794921875	-0.28861489868164064	0		3.721728759765625	-0.151791748046875	0		4.985970703125	0.0073068151473999025	0		6.0462890625	0.54716796875	0		-0.19951194763183594	5.91021728515625	0		
0.0030014660358428954	0.007525684833526611	0		0.5215818481445312	-2.416636962890625	0		-1.0044436645507813	0.2050358428955078	0		-0.6534962158203125	-2.7879326171875	0		2.518440673828125	-0.27518826293945314	0		3.72208740234375	-0.16029808044433594	0		4.974453125	0.007944410800933837	0		6.041884765625	0.5556976928710937	0		-0.18102479553222656	5.90551904296875	0		
-5.54980993270874E-4	0.00511520004272461	0		0.5449800415039062	-2.42041552734375	0		-0.9390709838867187	0.196713134765625	0		-0.6241701049804688	-2.796777099609375	0		2.51485400390625	-0.27962921142578123	0		3.720689697265625	-0.15078173828125	0		4.9529384765625	0.008714424133300782	0		6.041375	0.5561732177734375	0		-0.18146949768066406	5.9060703125	0		
0.007816864013671874	-0.0034652481079101563	0		0.5164470825195312	-2.4195068359375	0		-1.0205009155273437	0.20335011291503907	0		-0.6297901000976562	-2.80216259765625	0		2.498251708984375	-0.2859043579101562	0		3.685050048828125	-0.15981607055664063	0		4.94755322265625	0.018261198043823243	0		6.03576806640625	0.5487085571289062	0		-0.18289230346679688	5.90762548828125	0		
